<svg width="18" height="24" viewBox="0 0 18 24" fill="none" xmlns="http://www.w3.org/2000/svg">
<path d="M9.00003 0.75C7.80656 0.75 6.66196 1.22411 5.81805 2.06802C4.97414 2.91193 4.50003 4.05653 4.50003 5.25V6H3.87753C3.24612 5.99934 2.63878 6.24222 2.18194 6.6781C1.72511 7.11398 1.45399 7.70925 1.42503 8.34L0.83253 20.6775C0.817342 21.0093 0.869487 21.3407 0.985823 21.6517C1.10216 21.9628 1.28028 22.2471 1.50944 22.4875C1.7386 22.7278 2.01407 22.9193 2.31923 23.0504C2.62439 23.1814 2.95292 23.2493 3.28503 23.25H14.715C15.0471 23.2493 15.3757 23.1814 15.6808 23.0504C15.986 22.9193 16.2615 22.7278 16.4906 22.4875C16.7198 22.2471 16.8979 21.9628 17.0142 21.6517C17.1306 21.3407 17.1827 21.0093 17.1675 20.6775L16.575 8.34C16.5461 7.70925 16.2749 7.11398 15.8181 6.6781C15.3613 6.24222 14.7539 5.99934 14.1225 6H13.5V5.25C13.5 4.05653 13.0259 2.91193 12.182 2.06802C11.3381 1.22411 10.1935 0.75 9.00003 0.75ZM6.00003 5.25C6.00003 4.45435 6.3161 3.69129 6.87871 3.12868C7.44132 2.56607 8.20438 2.25 9.00003 2.25C9.79568 2.25 10.5587 2.56607 11.1213 3.12868C11.684 3.69129 12 4.45435 12 5.25V6H6.00003V5.25ZM4.77003 9.1425C4.77003 8.99416 4.81402 8.84916 4.89643 8.72582C4.97884 8.60249 5.09597 8.50636 5.23302 8.44959C5.37006 8.39283 5.52086 8.37797 5.66635 8.40691C5.81183 8.43585 5.94547 8.50728 6.05036 8.61217C6.15525 8.71706 6.22668 8.8507 6.25562 8.99618C6.28456 9.14167 6.26971 9.29247 6.21294 9.42951C6.15617 9.56656 6.06004 9.68369 5.93671 9.7661C5.81337 9.84851 5.66837 9.8925 5.52003 9.8925C5.32112 9.8925 5.13035 9.81348 4.9897 9.67283C4.84905 9.53218 4.77003 9.34141 4.77003 9.1425ZM11.73 9.1425C11.73 8.99416 11.774 8.84916 11.8564 8.72582C11.9388 8.60249 12.056 8.50636 12.193 8.44959C12.3301 8.39283 12.4809 8.37797 12.6263 8.40691C12.7718 8.43585 12.9055 8.50728 13.0104 8.61217C13.1152 8.71706 13.1867 8.8507 13.2156 8.99618C13.2446 9.14167 13.2297 9.29247 13.1729 9.42951C13.1162 9.56656 13.02 9.68369 12.8967 9.7661C12.7734 9.84851 12.6284 9.8925 12.48 9.8925C12.2811 9.8925 12.0904 9.81348 11.9497 9.67283C11.809 9.53218 11.73 9.34141 11.73 9.1425Z" fill="#9E9E9E"/>
</svg>
