<svg width="20" height="20" viewBox="0 0 20 20" fill="none" xmlns="http://www.w3.org/2000/svg">
<g clip-path="url(#clip0_28_557)">
<path d="M10 0.494476C4.56076 0.494476 0.142029 4.87112 0.142029 10.2472C0.142029 15.6234 4.56076 20 10 20C15.4392 20 19.858 15.6234 19.858 10.2472C19.858 4.8606 15.4287 0.494476 10 0.494476Z" fill="#E5A100"/>
<path d="M9.99999 0C4.69751 0 0.373474 4.31352 0.373474 9.62651C0.373474 14.9395 4.68699 19.253 9.99999 19.253C15.313 19.253 19.6265 14.9395 19.6265 9.62651C19.616 4.31352 15.3025 0 9.99999 0Z" fill="#FFCF00"/>
<path d="M10 1.63072C5.5918 1.63072 2.00421 5.21831 2.00421 9.62651C2.00421 14.0347 5.5918 17.6223 10 17.6223C14.4082 17.6223 17.9958 14.0347 17.9958 9.62651C17.9958 5.21831 14.4082 1.63072 10 1.63072ZM10 16.8227C6.03367 16.8227 2.80379 13.5928 2.80379 9.62651C2.80379 5.66018 6.03367 2.4303 10 2.4303C13.9663 2.4303 17.1962 5.66018 17.1962 9.62651C17.1962 13.5928 13.9663 16.8227 10 16.8227Z" fill="#E5A100"/>
<path d="M9.76856 19.2215C9.72648 19.2215 9.68439 19.2004 9.66335 19.1794C9.64231 19.1478 9.62127 19.1162 9.63179 19.0742L9.69491 17.8432C9.70543 17.7696 9.74752 17.7275 9.82116 17.7275C9.85273 17.7275 9.88429 17.738 9.90533 17.7696C9.92637 17.7906 9.93689 17.8222 9.93689 17.8432L9.91585 19.0847C9.91585 19.1583 9.85273 19.2215 9.76856 19.2215ZM11.8517 19.0321C11.7991 19.0321 11.7465 18.99 11.7359 18.9269L11.515 17.6854C11.515 17.6539 11.515 17.6328 11.5255 17.6118C11.536 17.5907 11.5676 17.5802 11.5887 17.5697H11.6097C11.6623 17.5697 11.6939 17.6013 11.7044 17.6433L11.9884 18.8743C11.999 18.9164 11.9884 18.9479 11.9674 18.9795C11.9464 19.011 11.9148 19.0321 11.8832 19.0426H11.8622C11.8727 19.0321 11.8622 19.0321 11.8517 19.0321ZM7.67492 18.9374H7.64336C7.60128 18.9269 7.56972 18.9058 7.54867 18.8637C7.52763 18.8322 7.52763 18.7901 7.53815 18.7691L7.87482 17.5487C7.88534 17.5066 7.93794 17.475 7.98003 17.475H8.00107C8.05367 17.4855 8.08523 17.5381 8.07471 17.6013L7.81169 18.8217C7.80117 18.8848 7.73805 18.9374 7.67492 18.9374ZM13.8717 18.3903C13.8296 18.3903 13.7875 18.3588 13.7665 18.3167L13.272 17.1594C13.2509 17.1068 13.272 17.0542 13.3246 17.0226H13.3667C13.4087 17.0226 13.4403 17.0437 13.4614 17.0752L14.0084 18.2009C14.0295 18.243 14.0295 18.2746 14.019 18.3167C14.0084 18.3482 13.9874 18.3693 13.9663 18.3798L13.9348 18.3903C13.9032 18.3798 13.8927 18.3903 13.8717 18.3903ZM5.6865 18.1799C5.66546 18.1799 5.64441 18.1799 5.62337 18.1694C5.59181 18.1483 5.57077 18.1273 5.54973 18.0852C5.53921 18.0431 5.53921 18.0116 5.56025 17.98L6.17045 16.8753C6.19149 16.8227 6.2441 16.8227 6.25462 16.8227C6.27566 16.8227 6.2967 16.8227 6.30722 16.8332C6.33878 16.8438 6.34931 16.8648 6.35983 16.8964C6.37035 16.9174 6.35983 16.9384 6.35983 16.9595L5.81275 18.0957C5.7917 18.1483 5.7391 18.1799 5.6865 18.1799ZM15.7233 17.3172C15.6707 17.3172 15.6286 17.2962 15.5971 17.2541L14.8711 16.2336C14.8396 16.1915 14.8501 16.1283 14.8922 16.0968C14.9132 16.0757 14.9343 16.0757 14.9553 16.0757C14.9869 16.0757 15.0184 16.0863 15.0395 16.1178L15.818 17.0963C15.839 17.1278 15.8496 17.1594 15.8496 17.2015C15.8496 17.2435 15.8285 17.2751 15.797 17.2962L15.7864 17.3067C15.7549 17.3172 15.7338 17.3172 15.7233 17.3172ZM3.91901 17.0121C3.88744 17.0121 3.85588 17.0016 3.83484 16.9805C3.77171 16.9279 3.76119 16.8332 3.8138 16.7701L4.64494 15.8338C4.66598 15.8127 4.69754 15.8022 4.72911 15.8022C4.75015 15.8022 4.78171 15.8127 4.79223 15.8232C4.83431 15.8548 4.85536 15.9179 4.81327 15.9705L4.03473 16.949C4.00317 16.9911 3.96109 17.0121 3.91901 17.0121ZM17.2488 15.8443C17.2173 15.8443 17.1857 15.8338 17.1541 15.8022L16.2178 14.9711C16.1757 14.929 16.1757 14.8659 16.2073 14.8238C16.2283 14.8027 16.2599 14.7922 16.2914 14.7922C16.3125 14.7922 16.3335 14.8027 16.3546 14.8132L17.333 15.5918C17.3646 15.6128 17.3856 15.6549 17.3856 15.6865C17.3856 15.7075 17.3856 15.7496 17.354 15.7812L17.3435 15.7917V15.8022C17.312 15.8338 17.2804 15.8443 17.2488 15.8443ZM2.47766 15.4761C2.43558 15.4761 2.39349 15.455 2.36193 15.4235C2.34089 15.3919 2.33037 15.3498 2.34089 15.3077C2.34089 15.2867 2.36193 15.2551 2.39349 15.2341L3.42453 14.4976C3.43505 14.4871 3.46661 14.4766 3.48765 14.4766C3.51922 14.4766 3.5613 14.4871 3.58234 14.5187C3.62442 14.5713 3.60338 14.6239 3.5613 14.666L2.58287 15.4445C2.54078 15.4655 2.50922 15.4761 2.47766 15.4761ZM18.4166 14.0873C18.3956 14.0873 18.3746 14.0768 18.3535 14.0768L17.2488 13.4666C17.1857 13.435 17.1857 13.3719 17.2067 13.3193L17.2173 13.2983V13.2877C17.2383 13.2667 17.2699 13.2457 17.3014 13.2457C17.312 13.2457 17.3225 13.2457 17.3435 13.2562L18.4798 13.8033C18.5113 13.8243 18.5429 13.8559 18.5534 13.8874C18.5639 13.919 18.5639 13.9505 18.5429 13.9821L18.5324 14.0031V14.0137C18.5008 14.0663 18.4587 14.0873 18.4166 14.0873ZM1.37298 13.656C1.32037 13.656 1.27829 13.6244 1.25725 13.5718C1.23621 13.5402 1.23621 13.5087 1.24673 13.4666C1.25725 13.435 1.28881 13.4035 1.32037 13.3824L2.47766 12.8879C2.48818 12.8879 2.50922 12.8774 2.51974 12.8774C2.56183 12.8774 2.59339 12.8985 2.61443 12.9406C2.63547 12.9826 2.61443 13.0563 2.57235 13.0668L1.44662 13.6139C1.41506 13.6454 1.39402 13.656 1.37298 13.656ZM19.1741 12.0989H19.1426L17.9327 11.7517C17.8801 11.7412 17.8485 11.6781 17.859 11.6255V11.6149C17.8801 11.5728 17.9116 11.5413 17.9642 11.5413H17.9853L19.2057 11.8253C19.2478 11.8359 19.2793 11.8569 19.3004 11.8885C19.3214 11.92 19.3214 11.9516 19.3214 11.9832C19.2899 12.0568 19.2373 12.0989 19.1741 12.0989ZM0.73121 11.6465C0.668085 11.6465 0.615481 11.6044 0.594439 11.5518V11.5202C0.583919 11.4782 0.594439 11.4466 0.615481 11.4256C0.636523 11.394 0.668085 11.373 0.710168 11.3624L1.96214 11.1415H1.98318C2.02527 11.1415 2.05683 11.1731 2.06735 11.2046V11.2362C2.07787 11.2888 2.04631 11.3414 1.9937 11.3519L0.773293 11.636C0.762772 11.6465 0.74173 11.6465 0.73121 11.6465ZM18.2167 9.94213C18.1431 9.93161 18.101 9.88952 18.101 9.81588C18.101 9.74223 18.1536 9.68963 18.2273 9.68963H19.4582C19.5003 9.68963 19.5318 9.71067 19.5634 9.73171C19.5844 9.76328 19.595 9.79484 19.595 9.8264V9.879C19.595 9.92109 19.5844 9.94213 19.5739 9.95265C19.5424 9.98421 19.5003 10.0053 19.4582 10.0053L18.2167 9.94213ZM0.531315 9.53182C0.46819 9.53182 0.415586 9.46869 0.415586 9.39505C0.405065 9.31088 0.457669 9.25828 0.531315 9.25828L1.80433 9.3214C1.84641 9.3214 1.8885 9.36349 1.8885 9.42661C1.8885 9.46869 1.83589 9.5213 1.79381 9.5213L0.531315 9.53182ZM18.0589 8.09047C18.0063 8.09047 17.9537 8.05891 17.9432 7.99578C17.9327 7.96422 17.9432 7.93266 17.9537 7.91162C17.9642 7.89058 17.9853 7.88006 18.0168 7.86954L19.2478 7.58547H19.2793C19.3425 7.58547 19.3951 7.62756 19.4056 7.68016V7.7012C19.4266 7.78537 19.3635 7.84849 19.2899 7.86954L18.0589 8.09047ZM2.04631 7.71172H2.02527L0.794334 7.42766C0.720689 7.40662 0.678606 7.33298 0.699647 7.25933V7.22777C0.720689 7.17516 0.773293 7.1436 0.825897 7.1436C0.836417 7.1436 0.846938 7.1436 0.857459 7.15412L2.08839 7.50131C2.10943 7.51183 2.13047 7.52235 2.14099 7.54339C2.15151 7.55391 2.16204 7.58547 2.15151 7.60652V7.63808C2.13047 7.69068 2.09891 7.71172 2.04631 7.71172ZM17.4592 6.32298C17.4277 6.32298 17.3961 6.30194 17.3751 6.25986C17.3646 6.23881 17.3646 6.20725 17.3646 6.17569C17.3751 6.14413 17.3961 6.12309 17.4172 6.11257L18.5429 5.55496C18.5639 5.54444 18.585 5.53392 18.606 5.53392C18.6586 5.53392 18.7007 5.56548 18.7217 5.60757C18.7323 5.63913 18.7428 5.68121 18.7217 5.7233C18.7112 5.75486 18.6797 5.78642 18.6481 5.79694L17.4908 6.31246L17.4803 6.32298H17.4592ZM2.68807 5.99684C2.67755 5.99684 2.65651 5.99684 2.64599 5.98632L1.52027 5.43924C1.48871 5.41819 1.45714 5.38663 1.44662 5.35507C1.4361 5.32351 1.4361 5.28142 1.45714 5.24986L1.46766 5.22882V5.2183C1.49923 5.17622 1.54131 5.1657 1.58339 5.1657C1.60443 5.1657 1.62548 5.17622 1.64652 5.18674L2.7512 5.80746C2.78276 5.8285 2.79328 5.84955 2.8038 5.87059C2.81432 5.90215 2.8038 5.92319 2.79328 5.95475C2.77224 5.9758 2.73016 5.99684 2.68807 5.99684ZM16.5334 4.75538C16.5019 4.75538 16.4703 4.73434 16.4493 4.7133C16.4072 4.6607 16.4177 4.60809 16.4598 4.56601L17.4382 3.77695C17.4592 3.75591 17.4908 3.74539 17.5329 3.74539C17.5539 3.74539 17.6065 3.75591 17.6381 3.79799C17.6591 3.82956 17.6697 3.86112 17.6697 3.9032C17.6697 3.94528 17.6486 3.97685 17.6065 3.99789L16.5965 4.72382C16.5755 4.74486 16.5545 4.75538 16.5334 4.75538ZM3.70859 4.47132C3.68755 4.47132 3.66651 4.47132 3.64547 4.45028L2.66703 3.66122C2.60391 3.60862 2.59339 3.52445 2.64599 3.46133C2.66703 3.42977 2.70912 3.41925 2.7512 3.41925C2.78276 3.41925 2.81432 3.42977 2.83537 3.45081L3.78224 4.29247C3.80328 4.31351 3.8138 4.33455 3.8138 4.36612C3.8138 4.39768 3.80328 4.41872 3.79276 4.43976C3.77171 4.4608 3.74015 4.47132 3.70859 4.47132ZM15.2604 3.41925C15.2394 3.41925 15.2183 3.40873 15.1973 3.3982C15.1447 3.35612 15.1447 3.30352 15.1762 3.25091L15.9548 2.27248C15.9863 2.24092 16.0284 2.21988 16.0705 2.21988C16.0915 2.21988 16.1231 2.21988 16.1547 2.25144C16.1862 2.27248 16.1968 2.30404 16.1968 2.34613C16.1968 2.38821 16.1862 2.41977 16.1652 2.44081L15.334 3.38768C15.3235 3.40873 15.292 3.41925 15.2604 3.41925ZM5.03421 3.19831C5.00265 3.19831 4.97108 3.18779 4.95004 3.16675L4.1715 2.18831C4.15046 2.15675 4.13994 2.11467 4.13994 2.08311C4.13994 2.06207 4.15046 2.01998 4.19255 1.99894C4.22411 1.9779 4.25567 1.96738 4.26619 1.96738C4.30827 1.96738 4.36088 1.98842 4.39244 2.0305L5.11837 3.0405C5.14994 3.08258 5.13942 3.14571 5.09733 3.18779C5.08681 3.18779 5.06577 3.19831 5.03421 3.19831ZM13.7349 2.41977C13.7244 2.41977 13.7033 2.41977 13.6928 2.40925C13.6718 2.39873 13.6507 2.37769 13.6402 2.34613C13.6297 2.31456 13.6297 2.29352 13.6507 2.26196L14.1978 1.13624C14.2188 1.08363 14.2715 1.05207 14.3241 1.05207C14.3451 1.05207 14.3661 1.05207 14.3872 1.06259C14.4187 1.08363 14.4398 1.10467 14.4608 1.14676C14.4713 1.18884 14.4713 1.2204 14.4503 1.25197L13.8611 2.34613C13.8085 2.38821 13.7665 2.41977 13.7349 2.41977ZM6.6018 2.25144C6.55972 2.25144 6.52816 2.2304 6.50712 2.18831L5.94952 1.06259C5.92847 1.03103 5.92847 0.988946 5.939 0.957384C5.94952 0.925821 5.98108 0.894259 6.01264 0.873217C6.02316 0.873217 6.0442 0.862697 6.06524 0.862697C6.11785 0.862697 6.17045 0.894259 6.19149 0.946863L6.68597 2.10415C6.70701 2.15675 6.68597 2.20936 6.63337 2.24092C6.63337 2.25144 6.62285 2.25144 6.6018 2.25144ZM12.02 1.76748H11.9884C11.9569 1.75696 11.9358 1.73592 11.9148 1.71488C11.9043 1.69384 11.8938 1.6728 11.9043 1.64123L12.1778 0.410303C12.1883 0.347179 12.2515 0.294575 12.3146 0.294575H12.3462C12.4198 0.315616 12.4619 0.389262 12.4514 0.473428L12.1042 1.68332C12.0937 1.74644 12.0516 1.76748 12.02 1.76748ZM8.3693 1.68332C8.31669 1.68332 8.26409 1.65176 8.26409 1.60967L7.98003 0.389262C7.96951 0.347179 7.98003 0.305095 8.00107 0.273533C8.02211 0.241971 8.05367 0.23145 8.08523 0.220929H8.1168C8.17992 0.220929 8.24305 0.273533 8.25357 0.347179L8.4745 1.57811C8.4745 1.60967 8.4745 1.63071 8.46398 1.65176C8.45346 1.6728 8.4219 1.68332 8.40086 1.69384C8.37982 1.68332 8.3693 1.68332 8.3693 1.68332ZM10.1894 1.52551C10.1157 1.52551 10.0842 1.4729 10.0842 1.4203V0.168325C10.0842 0.0841591 10.1578 0.0315552 10.221 0.0315552H10.2315C10.3051 0.0315552 10.3682 0.0946799 10.3682 0.178846L10.3051 1.43082C10.3051 1.4729 10.2525 1.52551 10.1894 1.52551Z" fill="#FFE500"/>
<path d="M12.7775 17.1173C11.8727 17.4645 10.8838 17.6433 9.89481 17.6433C7.45399 17.6433 4.93952 16.5492 3.34036 14.0768C2.97214 13.5192 2.84589 13.2141 2.84589 13.2141L3.31932 12.3409C3.31932 12.3304 3.31932 12.3198 3.32984 12.3198C4.39244 14.9606 6.99107 16.8227 10 16.8227C13.9664 16.8227 17.1962 13.5928 17.1962 9.62652C17.1962 8.86902 17.0805 8.13257 16.8596 7.43819V7.42767C17.0595 7.46976 17.4382 7.58549 17.7538 7.68017C18.9427 12.1936 16.3335 15.8022 12.7775 17.1173Z" fill="#FFE500"/>
<path d="M9.99998 2.4303C6.03365 2.4303 2.80377 5.66018 2.80377 9.62651C2.80377 10.5734 2.99315 11.4782 3.32981 12.3093C4.29772 9.82641 7.11729 8.21673 9.42134 7.32246C11.3361 6.58601 14.7975 6.38611 16.849 7.41715C15.9127 4.53445 13.1983 2.4303 9.99998 2.4303Z" fill="#FFC500"/>
<path d="M12.8091 9.32141H13.777V7.52236H13.4088C13.1983 4.5555 9.14784 4.34508 7.03316 5.2183V7.52236H6.23358V9.32141H8.22201C8.01159 9.44766 7.82222 9.57391 7.65389 9.71068H6.23358V11.5097H6.64389C6.52816 15.1078 11.0942 15.1815 13.3877 14.0663V11.5097H13.777V9.71068H12.4303C12.5671 9.58443 12.6933 9.45818 12.8091 9.32141ZM12.8301 11.657C12.3356 12.3093 9.05315 13.1931 9.49502 11.5097H12.9564L12.8301 11.657ZM10.2946 7.12257C10.4629 7.21725 10.5681 7.3435 10.6207 7.51183H7.59076C8.23253 7.11204 9.62127 6.76486 10.2946 7.12257Z" fill="#FFE500"/>
<path d="M13.4613 7.73277V8.90057H12.6617C12.3461 9.3214 11.9042 9.65807 11.3361 9.92109H13.4613V11.0889H9.27404C8.29561 13.3403 12.1252 12.8248 13.0615 11.7622V13.7612C10.8732 14.8132 6.41239 14.4345 6.99103 11.0889H6.53864V9.92109H7.75905C8.23248 9.51078 8.91633 9.17411 9.6107 8.90057H6.53864V7.73277H10.9574C11.01 5.97579 8.28508 6.5334 7.33821 7.20673V5.33403C9.36872 4.59757 13.1772 4.83955 13.0931 7.73277H13.4613Z" fill="#C78C00"/>
</g>
<defs>
<clipPath id="clip0_28_557">
<rect width="20" height="20" fill="white"/>
</clipPath>
</defs>
</svg>
