<svg width="20" height="13" viewBox="0 0 20 13" fill="none" xmlns="http://www.w3.org/2000/svg">
<path d="M18.3333 0.333328H1.66665C0.930267 0.333328 0.333313 0.930282 0.333313 1.66666V11.6667C0.333313 12.403 0.930267 13 1.66665 13H18.3333C19.0697 13 19.6666 12.403 19.6666 11.6667V1.66666C19.6666 0.930282 19.0697 0.333328 18.3333 0.333328Z" fill="#25A3DA"/>
<path d="M15.6666 11.6667C16.2189 11.6667 16.6666 11.2189 16.6666 10.6667C16.6666 10.1144 16.2189 9.66666 15.6666 9.66666C15.1143 9.66666 14.6666 10.1144 14.6666 10.6667C14.6666 11.2189 15.1143 11.6667 15.6666 11.6667Z" fill="#EC3A48"/>
<path d="M4.99996 2H2.33329C1.9651 2 1.66663 2.29848 1.66663 2.66667V4.66667C1.66663 5.03486 1.9651 5.33333 2.33329 5.33333H4.99996C5.36815 5.33333 5.66663 5.03486 5.66663 4.66667V2.66667C5.66663 2.29848 5.36815 2 4.99996 2Z" fill="#FCCB55"/>
<path d="M17.3333 11.6667C17.8856 11.6667 18.3333 11.2189 18.3333 10.6667C18.3333 10.1144 17.8856 9.66666 17.3333 9.66666C16.781 9.66666 16.3333 10.1144 16.3333 10.6667C16.3333 11.2189 16.781 11.6667 17.3333 11.6667Z" fill="#FCCB55"/>
<path d="M15.3333 5C15.2651 4.99995 15.1986 4.979 15.1427 4.93998C15.0868 4.90096 15.0442 4.84574 15.0207 4.78177C14.9972 4.71781 14.9938 4.64816 15.0111 4.58222C15.0283 4.51628 15.0654 4.45722 15.1173 4.413C15.1839 4.36668 15.2383 4.30492 15.2759 4.233C15.3135 4.16109 15.3331 4.08114 15.3331 4C15.3331 3.91885 15.3135 3.8389 15.2759 3.76699C15.2383 3.69507 15.1839 3.63332 15.1173 3.587C15.05 3.52953 15.0083 3.4477 15.0014 3.35949C14.9944 3.27129 15.0228 3.18394 15.0803 3.11666C15.1377 3.04939 15.2196 3.00769 15.3078 3.00075C15.396 2.99381 15.4833 3.0222 15.5506 3.07966C15.6906 3.18875 15.8039 3.32836 15.8818 3.48784C15.9598 3.64733 16.0003 3.82249 16.0003 4C16.0003 4.1775 15.9598 4.35266 15.8818 4.51215C15.8039 4.67164 15.6906 4.81124 15.5506 4.92033C15.4901 4.97223 15.4129 5.00052 15.3333 5Z" fill="#295474"/>
<path d="M16.3333 5.99999C16.2683 5.99996 16.2047 5.98092 16.1504 5.94523C16.0961 5.90953 16.0534 5.85873 16.0275 5.79908C16.0017 5.73943 15.9939 5.67353 16.005 5.60949C16.0162 5.54546 16.0458 5.48607 16.0903 5.43866C16.4602 5.05105 16.6667 4.53582 16.6667 3.99999C16.6667 3.46416 16.4602 2.94893 16.0903 2.56132C16.059 2.52968 16.0343 2.49208 16.0178 2.45075C16.0012 2.40942 15.9931 2.3652 15.994 2.32069C15.9948 2.27618 16.0045 2.23228 16.0226 2.1916C16.0407 2.15091 16.0667 2.11425 16.0992 2.08379C16.1316 2.05333 16.1699 2.02968 16.2116 2.01424C16.2534 1.9988 16.2978 1.99188 16.3423 1.99388C16.3867 1.99589 16.4303 2.00679 16.4705 2.02593C16.5107 2.04507 16.5467 2.07206 16.5763 2.10532C17.0622 2.61643 17.3332 3.29473 17.3332 3.99999C17.3332 4.70525 17.0622 5.38355 16.5763 5.89466C16.5451 5.92789 16.5075 5.95438 16.4657 5.97249C16.4239 5.99061 16.3788 5.99997 16.3333 5.99999Z" fill="#295474"/>
<path d="M17.3333 6.66666C17.2673 6.66672 17.2027 6.64716 17.1478 6.61047C17.0929 6.57379 17.0502 6.52163 17.0249 6.4606C16.9997 6.39958 16.9932 6.33244 17.0062 6.26771C17.0192 6.20297 17.0511 6.14356 17.098 6.097C17.3829 5.82707 17.6098 5.50191 17.7649 5.14137C17.9199 4.78083 17.9999 4.39247 17.9999 4C17.9999 3.60752 17.9199 3.21916 17.7649 2.85862C17.6098 2.49808 17.3829 2.17293 17.098 1.903C17.0353 1.84058 17 1.75583 16.9998 1.66737C16.9996 1.57892 17.0345 1.49401 17.097 1.43133C17.1594 1.36865 17.2441 1.33333 17.3326 1.33315C17.421 1.33296 17.5059 1.36792 17.5686 1.43033C17.9157 1.76231 18.1919 2.16115 18.3806 2.60279C18.5693 3.04444 18.6666 3.51973 18.6666 4C18.6666 4.48027 18.5693 4.95556 18.3806 5.3972C18.1919 5.83884 17.9157 6.23769 17.5686 6.56966C17.5061 6.63185 17.4215 6.66673 17.3333 6.66666ZM3.66663 11.6667H1.99996C1.91155 11.6667 1.82677 11.6315 1.76426 11.569C1.70174 11.5065 1.66663 11.4217 1.66663 11.3333C1.66663 11.2449 1.70174 11.1601 1.76426 11.0976C1.82677 11.0351 1.91155 11 1.99996 11H3.66663C3.75503 11 3.83982 11.0351 3.90233 11.0976C3.96484 11.1601 3.99996 11.2449 3.99996 11.3333C3.99996 11.4217 3.96484 11.5065 3.90233 11.569C3.83982 11.6315 3.75503 11.6667 3.66663 11.6667ZM4.66663 8.33333H2.66663C2.57822 8.33333 2.49344 8.29821 2.43092 8.2357C2.36841 8.17319 2.33329 8.0884 2.33329 8C2.33329 7.91159 2.36841 7.82681 2.43092 7.7643C2.49344 7.70178 2.57822 7.66666 2.66663 7.66666H4.66663C4.75503 7.66666 4.83982 7.70178 4.90233 7.7643C4.96484 7.82681 4.99996 7.91159 4.99996 8C4.99996 8.0884 4.96484 8.17319 4.90233 8.2357C4.83982 8.29821 4.75503 8.33333 4.66663 8.33333ZM7.99996 8.33333H5.99996C5.91155 8.33333 5.82677 8.29821 5.76426 8.2357C5.70174 8.17319 5.66663 8.0884 5.66663 8C5.66663 7.91159 5.70174 7.82681 5.76426 7.7643C5.82677 7.70178 5.91155 7.66666 5.99996 7.66666H7.99996C8.08837 7.66666 8.17315 7.70178 8.23566 7.7643C8.29817 7.82681 8.33329 7.91159 8.33329 8C8.33329 8.0884 8.29817 8.17319 8.23566 8.2357C8.17315 8.29821 8.08837 8.33333 7.99996 8.33333ZM11.3333 8.33333H9.33329C9.24489 8.33333 9.1601 8.29821 9.09759 8.2357C9.03508 8.17319 8.99996 8.0884 8.99996 8C8.99996 7.91159 9.03508 7.82681 9.09759 7.7643C9.1601 7.70178 9.24489 7.66666 9.33329 7.66666H11.3333C11.4217 7.66666 11.5065 7.70178 11.569 7.7643C11.6315 7.82681 11.6666 7.91159 11.6666 8C11.6666 8.0884 11.6315 8.17319 11.569 8.2357C11.5065 8.29821 11.4217 8.33333 11.3333 8.33333ZM14.6666 8.33333H12.6666C12.5782 8.33333 12.4934 8.29821 12.4309 8.2357C12.3684 8.17319 12.3333 8.0884 12.3333 8C12.3333 7.91159 12.3684 7.82681 12.4309 7.7643C12.4934 7.70178 12.5782 7.66666 12.6666 7.66666H14.6666C14.755 7.66666 14.8398 7.70178 14.9023 7.7643C14.9648 7.82681 15 7.91159 15 8C15 8.0884 14.9648 8.17319 14.9023 8.2357C14.8398 8.29821 14.755 8.33333 14.6666 8.33333ZM6.66663 11.6667H4.99996C4.91155 11.6667 4.82677 11.6315 4.76426 11.569C4.70175 11.5065 4.66663 11.4217 4.66663 11.3333C4.66663 11.2449 4.70175 11.1601 4.76426 11.0976C4.82677 11.0351 4.91155 11 4.99996 11H6.66663C6.75503 11 6.83982 11.0351 6.90233 11.0976C6.96484 11.1601 6.99996 11.2449 6.99996 11.3333C6.99996 11.4217 6.96484 11.5065 6.90233 11.569C6.83982 11.6315 6.75503 11.6667 6.66663 11.6667ZM7.66663 9.66667H6.33329C6.24489 9.66667 6.1601 9.63155 6.09759 9.56903C6.03508 9.50652 5.99996 9.42174 5.99996 9.33333C5.99996 9.24493 6.03508 9.16014 6.09759 9.09763C6.1601 9.03512 6.24489 9 6.33329 9H7.66663C7.75503 9 7.83982 9.03512 7.90233 9.09763C7.96484 9.16014 7.99996 9.24493 7.99996 9.33333C7.99996 9.42174 7.96484 9.50652 7.90233 9.56903C7.83982 9.63155 7.75503 9.66667 7.66663 9.66667ZM9.33329 9.66667H8.99996C8.91155 9.66667 8.82677 9.63155 8.76426 9.56903C8.70174 9.50652 8.66663 9.42174 8.66663 9.33333C8.66663 9.24493 8.70174 9.16014 8.76426 9.09763C8.82677 9.03512 8.91155 9 8.99996 9H9.33329C9.4217 9 9.50648 9.03512 9.569 9.09763C9.63151 9.16014 9.66663 9.24493 9.66663 9.33333C9.66663 9.42174 9.63151 9.50652 9.569 9.56903C9.50648 9.63155 9.4217 9.66667 9.33329 9.66667ZM11 9.66667H10.6666C10.5782 9.66667 10.4934 9.63155 10.4309 9.56903C10.3684 9.50652 10.3333 9.42174 10.3333 9.33333C10.3333 9.24493 10.3684 9.16014 10.4309 9.09763C10.4934 9.03512 10.5782 9 10.6666 9H11C11.0884 9 11.1731 9.03512 11.2357 9.09763C11.2982 9.16014 11.3333 9.24493 11.3333 9.33333C11.3333 9.42174 11.2982 9.50652 11.2357 9.56903C11.1731 9.63155 11.0884 9.66667 11 9.66667Z" fill="#295474"/>
<path d="M3.33329 5.33333V4.33333H5.66663V3.66667H4.66663V2H3.99996V3.66667H3.33329V2H2.66663V3.66667H1.66663V4.33333H2.66663V5.33333H3.33329Z" fill="#E2B550"/>
</svg>
