<svg width="20" height="20" viewBox="0 0 20 20" fill="none" xmlns="http://www.w3.org/2000/svg">
<path d="M18.4 11.6001C18.4 8.72656 16.072 6.4 13.1999 6.4C10.3281 6.4 8.00078 8.72656 8.00078 11.6001C7.33838 11.6001 6.80078 12.1374 6.80078 12.8001V16.7999C6.80078 17.4626 7.33838 17.9999 8.00078 17.9999H10.4008C10.6211 17.9999 10.7999 17.8211 10.7999 17.6001V14.8C10.7999 14.3601 10.6398 13.678 10.443 13.2844L9.60086 11.6001C9.60086 9.61096 11.211 8.00008 13.2001 8.00008C15.1876 8.00008 16.8001 9.61096 16.8001 11.6001L15.958 13.2844C15.7612 13.6782 15.6001 14.3601 15.6001 14.8V17.6922C14.8849 18.1544 14.0514 18.4002 13.1999 18.4H12.4V19.6H13.1999C14.7321 19.6 16.1188 18.9882 17.1373 17.9999H18.4C18.7182 17.9999 19.0235 17.8735 19.2485 17.6484C19.4736 17.4234 19.6 17.1182 19.6 16.7999V12.8001C19.6 12.4818 19.4736 12.1766 19.2485 11.9516C19.0235 11.7265 18.7182 11.6001 18.4 11.6001Z" fill="black"/>
<path d="M13.1998 5.2C13.4717 5.2 13.7374 5.22256 14 5.25544V2.00008C14 1.12024 13.2795 0.400002 12.3999 0.400002H1.99998C1.1199 0.400002 0.399902 1.12024 0.399902 2.00008V6.80008C0.399902 7.67992 1.1199 8.40016 1.99998 8.40016V10.8002L6.00006 8.40016H7.66686C8.77518 6.49048 10.8373 5.2 13.1998 5.2ZM9.9999 3.59992C10.105 3.59983 10.209 3.62045 10.3061 3.66062C10.4032 3.70078 10.4914 3.7597 10.5657 3.834C10.64 3.9083 10.699 3.99652 10.7391 4.09361C10.7793 4.19071 10.7999 4.29477 10.7998 4.39984C10.7998 4.55805 10.7529 4.71271 10.665 4.84425C10.5771 4.9758 10.4522 5.07833 10.306 5.13887C10.1599 5.19942 9.99902 5.21526 9.84385 5.18439C9.68868 5.15353 9.54614 5.07734 9.43427 4.96547C9.3224 4.8536 9.24622 4.71107 9.21535 4.5559C9.18449 4.40073 9.20033 4.23989 9.26087 4.09373C9.32142 3.94756 9.42394 3.82263 9.55549 3.73473C9.68704 3.64684 9.84169 3.59992 9.9999 3.59992ZM4.39998 5.2C4.1878 5.2 3.98431 5.11571 3.83427 4.96567C3.68423 4.81564 3.59994 4.61215 3.59994 4.39996C3.59994 4.18778 3.68423 3.98428 3.83427 3.83425C3.98431 3.68421 4.1878 3.59992 4.39998 3.59992C4.61217 3.59992 4.81566 3.68421 4.9657 3.83425C5.11573 3.98428 5.20002 4.18778 5.20002 4.39996C5.20002 4.61215 5.11573 4.81564 4.9657 4.96567C4.81566 5.11571 4.61217 5.2 4.39998 5.2ZM6.3999 4.40008C6.3999 4.1879 6.48419 3.9844 6.63423 3.83437C6.78427 3.68433 6.98776 3.60004 7.19994 3.60004C7.41213 3.60004 7.61562 3.68433 7.76566 3.83437C7.91569 3.9844 7.99998 4.1879 7.99998 4.40008C7.99998 4.61227 7.91569 4.81576 7.76566 4.9658C7.61562 5.11583 7.41213 5.20012 7.19994 5.20012C6.98776 5.20012 6.78427 5.11583 6.63423 4.9658C6.48419 4.81576 6.3999 4.61227 6.3999 4.40008Z" fill="black"/>
</svg>
