<svg width="18" height="20" viewBox="0 0 18 20" fill="none" xmlns="http://www.w3.org/2000/svg">
<path d="M15.753 5.16719C15.7873 4.88859 15.8045 4.60816 15.8045 4.32746C15.8045 1.9375 13.8671 0 11.4771 0H4.24497C3.79005 0 3.40165 0.328516 3.32619 0.777109L0.661342 16.616C0.565717 17.1843 1.00384 17.7023 1.58013 17.7023H4.22509C4.68001 17.7023 5.07572 17.374 5.15115 16.9254L5.16353 16.8517H5.16357L4.79497 19.0426C4.71076 19.5435 5.09689 20 5.60482 20H7.91876C8.31974 20 8.66208 19.7104 8.72857 19.315L9.38595 15.408C9.49927 14.7345 10.0824 14.2413 10.7653 14.2413H11.3732C14.6751 14.2413 17.3519 11.5646 17.3519 8.26266C17.3519 6.98496 16.7203 5.85555 15.753 5.16719Z" fill="#002987"/>
<path d="M15.753 5.16719C15.3392 8.53356 12.47 11.1402 8.99183 11.1402H6.97366C6.51816 11.1402 6.12476 11.4436 6.00136 11.8726L4.79503 19.0425C4.71077 19.5434 5.0969 20 5.60483 20H7.91878C8.31976 20 8.6621 19.7104 8.72858 19.315L9.38597 15.408C9.49929 14.7345 10.0824 14.2413 10.7653 14.2413H11.3732C14.6751 14.2413 17.3519 11.5646 17.3519 8.26266C17.3519 6.98496 16.7203 5.85555 15.753 5.16719Z" fill="#0085CC"/>
<path d="M6.97363 11.1402H8.99179C12.47 11.1402 15.3392 8.53356 15.753 5.16723C15.1323 4.72559 14.3739 4.46497 13.5541 4.46497H8.28656C7.68683 4.46497 7.17476 4.89805 7.07523 5.48946L6.00128 11.8726C6.12468 11.4436 6.51812 11.1402 6.97363 11.1402Z" fill="#00186A"/>
</svg>
