<svg width="24" height="22" viewBox="0 0 24 22" fill="none" xmlns="http://www.w3.org/2000/svg">
<path d="M21.9075 7.88C21.4699 7.81643 21.0522 7.65495 20.6856 7.40759C20.3191 7.16023 20.013 6.83336 19.7903 6.45132C19.5675 6.06928 19.4339 5.64191 19.3992 5.20104C19.3645 4.76017 19.4297 4.31716 19.59 3.905C19.6919 3.63554 19.7069 3.34096 19.6329 3.06254C19.559 2.78413 19.3997 2.53584 19.1775 2.3525C18.1965 1.52875 17.0799 0.881631 15.8775 0.439999C15.6037 0.338286 15.3048 0.325578 15.0233 0.403685C14.7419 0.481791 14.4922 0.646729 14.31 0.874999C14.0357 1.22574 13.6852 1.50941 13.2849 1.70451C12.8847 1.8996 12.4453 2.00099 12 2.00099C11.5548 2.00099 11.1153 1.8996 10.7151 1.70451C10.3149 1.50941 9.96431 1.22574 9.69002 0.874999C9.50778 0.646729 9.25816 0.481791 8.9767 0.403685C8.69525 0.325578 8.39632 0.338286 8.12252 0.439999C7.01227 0.847731 5.97421 1.43005 5.04752 2.165C4.81392 2.34992 4.64567 2.60477 4.56739 2.89224C4.48912 3.1797 4.50493 3.48467 4.61252 3.7625C4.78558 4.18557 4.85709 4.6433 4.8213 5.099C4.7855 5.55469 4.64341 5.99565 4.40642 6.38651C4.16942 6.77737 3.84412 7.10725 3.45661 7.34968C3.0691 7.59211 2.63016 7.74035 2.17502 7.7825C1.87952 7.81409 1.60198 7.93973 1.38325 8.1409C1.16452 8.34208 1.01616 8.60817 0.960016 8.9C0.820364 9.59127 0.750016 10.2948 0.750016 11C0.74899 11.5904 0.796651 12.1799 0.892516 12.7625C0.940227 13.0637 1.08583 13.3407 1.3068 13.5509C1.52778 13.761 1.81182 13.8925 2.11502 13.925C2.58016 13.9686 3.02808 14.1231 3.42129 14.3754C3.8145 14.6277 4.14156 14.9705 4.37509 15.3751C4.60862 15.7798 4.74182 16.2344 4.76356 16.7011C4.78529 17.1678 4.69492 17.6329 4.50002 18.0575C4.37246 18.3337 4.34082 18.6446 4.41012 18.9408C4.47942 19.237 4.64568 19.5016 4.88252 19.6925C5.8576 20.5013 6.96345 21.1379 8.15252 21.575C8.30457 21.6277 8.46411 21.6555 8.62502 21.6575C8.84564 21.657 9.06294 21.6036 9.25868 21.5019C9.45443 21.4001 9.62292 21.2528 9.75002 21.0725C10.0173 20.683 10.3757 20.3647 10.7939 20.1451C11.2121 19.9255 11.6776 19.8114 12.15 19.8125C12.6077 19.8131 13.0589 19.9205 13.4678 20.1262C13.8766 20.332 14.2318 20.6303 14.505 20.9975C14.6867 21.2418 14.9442 21.4191 15.2372 21.5019C15.5302 21.5846 15.8423 21.5681 16.125 21.455C17.2123 21.0174 18.2245 20.4126 19.125 19.6625C19.3512 19.4755 19.5123 19.2215 19.5851 18.9372C19.6578 18.6528 19.6386 18.3527 19.53 18.08C19.3536 17.6624 19.2767 17.2095 19.3053 16.757C19.334 16.3046 19.4674 15.865 19.6951 15.473C19.9227 15.0809 20.2384 14.7472 20.6171 14.4981C20.9959 14.249 21.4274 14.0913 21.8775 14.0375C22.1694 13.9971 22.4409 13.8649 22.6526 13.6599C22.8643 13.455 23.0052 13.1879 23.055 12.8975C23.1755 12.2719 23.2407 11.637 23.25 11C23.2502 10.3281 23.1874 9.65768 23.0625 8.9975C23.0119 8.71347 22.873 8.45263 22.6657 8.25202C22.4583 8.05141 22.1931 7.92124 21.9075 7.88ZM15.75 11C15.75 11.7417 15.5301 12.4667 15.118 13.0834C14.706 13.7001 14.1203 14.1807 13.4351 14.4645C12.7499 14.7484 11.9959 14.8226 11.2684 14.6779C10.541 14.5332 9.87281 14.1761 9.34837 13.6516C8.82392 13.1272 8.46677 12.459 8.32207 11.7316C8.17738 11.0042 8.25164 10.2502 8.53547 9.56494C8.8193 8.87971 9.29994 8.29404 9.91663 7.88199C10.5333 7.46993 11.2583 7.25 12 7.25C12.9946 7.25 13.9484 7.64509 14.6517 8.34835C15.3549 9.05161 15.75 10.0054 15.75 11Z" fill="black" fill-opacity="0.75"/>
</svg>
